<?xml version="1.0" encoding="utf-8"?>
<svg version="1.1" id="Calque_1" xmlns="http://www.w3.org/2000/svg" xmlns:xlink="http://www.w3.org/1999/xlink" x="0px" y="0px"
	 viewBox="0 0 600 123.2" style="enable-background:new 0 0 600 123.2;" xml:space="preserve">
<style type="text/css">
	.st0{fill:url(#SVGID_1_);}
	.st1{fill:url(#SVGID_2_);}
	.st2{fill:#495466;}
</style>
<linearGradient id="SVGID_1_" gradientUnits="userSpaceOnUse" x1="21.5778" y1="257.4968" x2="126.3956" y2="257.4968" gradientTransform="matrix(1 0 0 1 0 -194.96)">
	<stop  offset="0" style="stop-color:#76C8DD"/>
	<stop  offset="1" style="stop-color:#2AB3D7"/>
</linearGradient>
<path class="st0" d="M74,114.9c-28.9,0-52.4-23.5-52.4-52.4S45.1,10.1,74,10.1s52.4,23.5,52.4,52.4S102.9,114.9,74,114.9z M74,14.6
	c-26.4,0-48,21.5-48,48s21.5,48,48,48s48-21.5,48-48S100.5,14.6,74,14.6z"/>
<linearGradient id="SVGID_2_" gradientUnits="userSpaceOnUse" x1="32.8602" y1="256.9509" x2="115.1131" y2="256.9509" gradientTransform="matrix(1 0 0 1 0 -194.96)">
	<stop  offset="0" style="stop-color:#76C8DD"/>
	<stop  offset="1" style="stop-color:#2AB3D7"/>
</linearGradient>
<path class="st1" d="M74,20.8c-22.7,0-41.1,18.4-41.1,41.1c0,7.1,1.8,13.8,4.9,19.6c1.1-0.8,2.3-1.6,3.6-2.4
	C63.9,65.7,83.9,54.6,97.1,34c0,0-0.9,23.3-14.3,34.1c-3,2.4-5.5,4.3-7.9,5.8c6.8-3.6,12.7-7.6,17.3-13.1c0,0-0.4,15.6-11.9,22.6
	c-4.3,2.5-7.9,4-11.5,5.1c6.6-1.5,10.8-3.3,14.3-5.6c-2.9,9.7-9.2,14.8-19.1,16.2c-3.6,0.4-6.6-0.4-9.8-1.1
	c5.9,3.3,12.7,5.1,19.9,5.1c22.7,0,41.1-18.4,41.1-41.1S96.8,20.8,74,20.8z"/>
<g>
	<path class="st2" d="M218.1,42c-1.2-1.4-2.1-2.3-2.5-2.8l-10.9-11.4c-2.1-2.3-4.5-3.6-7.4-3.6c-2.8,0-5.5,1.2-7.7,3.6l-8.2,8.7
		l-8.2-8.7c-2-2.3-4.4-3.6-7.4-3.6c-2.8,0-5.2,1.2-7.4,3.6l-10.9,11.4c-0.5,0.5-1.3,1.3-2.4,2.5c-1.1,1.2-2.1,2.5-2.9,3.8
		s-1.2,3.1-1.3,5v40.9c0,2.8,0.9,5.1,2.8,6.7c1.9,1.6,4.1,2.4,6.6,2.4s4.8-0.8,6.6-2.4c1.9-1.6,2.8-3.9,2.8-6.7V50.1
		c0-3.4,2.8-6.2,6.2-6.2c3.4,0,6.2,2.8,6.2,6.2v41.4c0,2.9,0.9,5.2,2.8,6.8c1.9,1.7,4.1,2.5,6.6,2.5c2.5,0,4.7-0.8,6.6-2.5
		c1.9-1.7,2.8-3.9,2.8-6.8V50.2c0-3.5,2.8-6.3,6.3-6.3c3.5,0,6.3,2.8,6.3,6.3v41.3c0,2.8,0.9,5.1,2.8,6.7c1.9,1.6,4.1,2.4,6.6,2.4
		s4.8-0.8,6.6-2.4c1.9-1.6,2.8-3.9,2.8-6.7V50.6c-0.1-1.7-0.6-3.1-1.2-4.4C220.3,44.8,219.3,43.4,218.1,42L218.1,42z M268,43.7
		c2.5,0,4.7-0.9,6.6-2.8c1.9-1.9,2.8-4.1,2.8-6.7c0-2.5-0.9-4.7-2.8-6.5c-1.8-1.8-4-2.8-6.6-2.8h-25.8c-2.8,0-5.4,0.7-7.8,2.1
		c-2.4,1.5-4.3,3.3-5.8,5.8c-1.5,2.4-2.1,5.1-2.1,7.9v5c0,4.1,0.7,7.6,2,10.1c1.3,2.6,3.8,4.5,7.4,5.8c-3.8,1.3-6.3,3.3-7.5,6
		c-1.2,2.8-1.8,6.3-1.8,10.7v5.8c0,2.8,0.7,5.5,2.1,7.9c1.5,2.4,3.3,4.4,5.8,5.8s5,2.1,7.8,2.1H268c2.5-0.1,4.8-1.1,6.6-2.9
		c1.8-1.8,2.8-3.9,2.8-6.4c0-2.6-0.9-4.9-2.8-6.7c-1.8-1.8-4-2.8-6.6-2.8h-22.8v-9h21c2.5,0,4.7-0.9,6.6-2.8
		c1.9-1.9,2.8-4.1,2.8-6.6c0-2.6-0.9-4.9-2.8-6.7s-4-2.8-6.6-2.8h-21v-9.9H268z M322.2,29.5c-3.3-3.1-7.1-4.6-11.3-4.6h-21
		c-2.6,0-4.9,0.9-6.7,2.8c-1.8,1.8-2.8,4.1-2.8,6.7v56.6c0,2.5,0.9,4.8,2.8,6.6c1.8,1.8,4.1,2.8,6.7,2.8c2.5,0,4.7-0.9,6.6-2.8
		c1.8-1.8,2.7-4,2.7-6.6V63.3l18.3,22.3v5.2c0,2.5,0.9,4.7,2.7,6.6c1.8,1.9,4,2.8,6.6,2.8c2.5,0,4.7-0.9,6.4-2.8
		c1.8-1.8,2.7-4,2.7-6.6v-5.5c0-3.5-0.7-6.6-2.1-9.1c-1.4-2.5-3.7-4.9-6.9-6.8c6.3-3.1,9.5-8.3,9.5-15.4v-4.2c0-4.4-1.7-8.2-5-11.6
		L322.2,29.5z M308.7,61.7h-9.5v-8.9c0-5.1,4.1-9.2,9.2-9.2c5.1,0,9.2,4.1,9.2,9.2C317.5,57.7,313.6,61.7,308.7,61.7z M382.4,43.7
		c2.5,0,4.7-0.9,6.6-2.8c1.9-1.9,2.8-4.1,2.8-6.6c0-2.5-0.9-4.8-2.8-6.6c-1.9-1.9-4.1-2.8-6.6-2.8h-26c-2.8,0-5.5,0.7-7.9,2.1
		c-2.4,1.5-4.4,3.3-5.8,5.8c-1.5,2.4-2.1,5.1-2.1,7.9v43.4c0,2.8,0.7,5.5,2.1,7.9c1.5,2.4,3.3,4.4,5.8,5.8c2.4,1.5,5.1,2.1,7.9,2.1
		h25.8c2.5,0,4.8-0.9,6.6-2.7c1.9-1.8,2.8-4,2.8-6.6s-0.9-4.8-2.8-6.6c-1.9-1.8-4.1-2.8-6.6-2.8h-22.9V43.7H382.4z M440.7,24.7
		c-2.5,0-4.8,0.9-6.6,2.8c-1.9,1.9-2.8,4.1-2.8,6.6v38.6c0,4.8-3.9,8.7-8.7,8.7c-4.8,0-8.7-3.9-8.7-8.7V34.6c0-2.8-0.9-5.2-2.7-7.1
		c-1.8-1.9-4.1-2.8-6.8-2.8c-2.7,0-4.9,0.9-6.8,2.8c-1.8,1.9-2.7,4.1-2.7,6.8v48.3c0,3.5,0.8,6.6,2.5,9.2c1.7,2.6,3.9,4.7,6.7,6.2
		s6,2.2,9.5,2.2c4.1,0,7.6-1.1,10.6-3.2c2.9-2.1,5-5.2,6.3-9.3c0.1-0.4,0.3-0.5,0.4-0.5c0.1,0,0.2,0.1,0.2,0.5V91
		c0,2.6,0.9,4.9,2.8,6.7c1.9,1.8,4.1,2.8,6.6,2.8c2.6,0,4.9-0.9,6.8-2.8c1.9-1.8,2.8-4.1,2.8-6.7V34.1c0-2.5-0.9-4.6-2.5-6.4
		C445.9,25.9,443.3,24.7,440.7,24.7L440.7,24.7z M496.1,29.5c-3.3-3.1-7.1-4.6-11.3-4.6h-21c-2.6,0-4.9,0.9-6.7,2.8
		c-1.8,1.8-2.8,4.1-2.8,6.7v56.6c0,2.5,0.9,4.8,2.8,6.6c1.8,1.8,4.1,2.8,6.7,2.8c2.5,0,4.7-0.9,6.6-2.8c1.8-1.8,2.7-4,2.7-6.6V63.3
		l18.3,22.3v5.2c0,2.5,0.9,4.7,2.7,6.6c1.8,1.9,4,2.8,6.6,2.8c2.5,0,4.7-0.9,6.4-2.8c1.8-1.8,2.7-4,2.7-6.6v-5.5
		c0-3.5-0.7-6.6-2.1-9.1c-1.4-2.5-3.7-4.9-6.9-6.8c6.3-3.1,9.5-8.3,9.5-15.4v-4.2c0-4.4-1.7-8.2-5-11.6
		C505.2,38.3,496.1,29.5,496.1,29.5z M482.6,61.7h-9.5v-8.9c0-5.1,4.1-9.2,9.2-9.2s9.2,4.1,9.2,9.2
		C491.5,57.7,487.5,61.7,482.6,61.7z M568.4,57.2c9.2-4.8,10-17.3,10-17.3c-9.2,10-22.9,14.5-38.3,20c-3.6,1.3-5.8,0.8-7,0.5V43.7
		h22.8c2.5,0,4.7-0.9,6.6-2.8c1.9-1.9,2.8-4.1,2.8-6.7c0-2.5-0.9-4.7-2.8-6.5s-4-2.8-6.6-2.8H530c-2.8,0-5.4,0.7-7.8,2.1
		c-2.4,1.5-4.3,3.3-5.8,5.8c-1.5,2.4-2.1,5.1-2.1,7.9v5c0,4.1,0.7,7.6,2,10.1c1.3,2.6,3.8,4.5,7.4,5.8c-3.8,1.3-6.3,3.3-7.5,6
		c-1.2,2.8-1.8,6.3-1.8,10.7v5.8c0,2.8,0.7,5.5,2.1,7.9c1.5,2.4,3.3,4.4,5.8,5.8s5,2.1,7.8,2.1h25.8c2.5-0.1,4.8-1.1,6.6-2.9
		c1.8-1.8,2.8-3.9,2.8-6.4c0-2.6-0.9-4.9-2.8-6.7c-1.8-1.8-4-2.8-6.6-2.8h-22.8v-7.1c9-1.7,16.3-2.1,22.1-2c6.7-0.1,11-2.3,13.1-7.3
		c-2.3,1-5.2,1.7-9.8,2c2.4-0.3,4.9-0.8,7.8-1.9c7.9-2.8,8.3-11.2,8.3-11.2c-3.1,2.5-7.2,4.4-11.8,5.8
		C564.5,59,566.3,58.2,568.4,57.2z"/>
</g>
</svg>
