<?xml version="1.0" encoding="utf-8"?>
<!-- Generator: Adobe Illustrator 22.0.1, SVG Export Plug-In . SVG Version: 6.00 Build 0)  -->
<svg version="1.1" id="Calque_1" xmlns="http://www.w3.org/2000/svg" xmlns:xlink="http://www.w3.org/1999/xlink" x="0px" y="0px"
	 width="599.9px" height="206px" viewBox="0 0 599.9 206" style="enable-background:new 0 0 599.9 206;" xml:space="preserve">
<style type="text/css">
	.st0{fill:#2AB3D7;}
	.st1{fill:#76C8DD;}
	.st2{fill:#495466;}
</style>
<g>
	<path class="st0" d="M62.9,49c4.5,2.1,9.3,3.6,14.1,4.9c11.3,3.1,22.7,6,34.1,9c5.5,1.5,7.3,5.4,4.5,10.4
		c-10.1,18.3-20.3,36.5-30.5,54.8c-0.4,0.8-0.9,1.5-1.3,2.3c-1.1,2.5-0.4,4.9,1.9,6.2c2.3,1.3,4.7,0.7,6.1-1.8
		c3.3-5.8,6.5-11.6,9.7-17.4c6.7-12.2,13.4-24.4,20.1-36.6c1.4-2.6,2.9-5.1,4.2-7.7c3.5-6.8,0.8-15.1-6.4-17.2
		C99,49.9,78.5,44.5,57.5,38.7C57.4,43.6,59.1,47.2,62.9,49z"/>
	<path class="st1" d="M53.4,90.6c2.1,1.5,4.5,2.7,6.9,3.4c11.1,3.1,22.2,6,33.4,9c1.6-2.9,3.2-5.6,5-8.8C82.2,89.8,66,85.5,49.4,81
		C49,85.4,50.5,88.5,53.4,90.6z"/>
	<path class="st1" d="M73.2,66.8c1.8,1,3.7,1.8,5.7,2.4c9,2.5,18.1,4.8,27.1,7.3c1.8,0.5,2.7,0.3,3.6-1.4c3.6-7,5.1-6.6-3.6-8.9
		c-11.8-3.1-23.6-6.3-35.4-9.4c-0.7-0.2-1.4-0.3-2.6-0.6C67.9,61,69.4,64.5,73.2,66.8z"/>
	<path class="st1" d="M74.5,76.9c0.3-4-1.7-5-5.1-5.8c-9.2-2.2-18.3-4.8-27.5-7.3c-1-0.3-2-0.5-3.1-0.7c-0.3,5.8,1.6,9.7,6.7,11.8
		c4.4,1.8,9.1,3,13.7,4.3c5.5,1.6,11.1,3,16.9,4.6C75.5,81.1,74.4,79,74.5,76.9z"/>
	<path class="st1" d="M35.6,57.2c5,1.8,10.2,3.1,15.3,4.5c4.7,1.3,9.4,2.5,14.2,3.8c-0.5-3.3-0.8-6.4-1.4-9.5
		c-0.1-0.6-1-1.4-1.7-1.6c-11.1-3-22.2-6-33.6-9C28,51.5,30.1,55.2,35.6,57.2z"/>
	<path class="st0" d="M53.1,39.1c-0.2-0.7-0.8-1.7-1.4-1.9c-11.3-3.2-22.6-6.3-34.1-9.5c-0.3,5.8,2.3,9.6,7,11.4
		c5.9,2.3,12,3.8,18.1,5.6c4,1.2,8.1,2.1,12.1,3.2C54.2,44.8,53.7,41.9,53.1,39.1z"/>
	<path class="st0" d="M79.1,73.8c-1.1,4.3,0.6,9,4.7,10.9c5.1,2.3,10.6,3.7,16,5.4c0.5,0.1,1.5-0.4,1.8-0.9c1.5-2.6,2.9-5.3,4.6-8.2
		C96.9,78.5,88,76.1,79.1,73.8z"/>
</g>
<g>
	<path class="st2" d="M250.8,121.4l6.8,7.2l6.8-7.2c3.7-3.9,9.1-3.9,12.5,0l9.1,9.4c2.8,3.1,5.1,5.1,5.5,9.4v33.9
		c0,10.1-15.7,10.1-15.7,0c0-13.1,0-26.3,0-39.4h-10.4c0,13.1,0,26.3,0,39.4c0,10.3-15.6,10.3-15.6,0c0-13.1,0-26.3,0-39.4h-10.2
		c0,13.1,0,26.3,0,39.4c0,10.1-15.7,10.1-15.7,0v-33.9c0.2-4.4,2.7-6.3,5.5-9.4l9.1-9.4C241.9,117.5,247.3,117.5,250.8,121.4z"/>
	<path class="st2" d="M310.5,134.6c0,2.8,0,5.5,0,8.2c5.8,0,11.5,0,17.4,0c4.2,0,7.7,3.5,7.7,7.8c0,4.2-3.6,7.7-7.7,7.7
		c-5.9,0-11.6,0-17.4,0c0,2.6,0,5.1,0,7.5h18.9c4.3,0,7.7,3.5,7.7,7.8c0,4.2-3.6,7.6-7.7,7.7c-8.5,0-12.9,0-21.5,0
		c-7.1,0-13-6-13-13.2v-4.8c0-6.1,0.9-11.5,7.7-13.9c-6.4-2.2-7.7-7-7.7-13.2c0-1.3,0-2.8,0-4.2c0-7.3,5.9-13.2,13-13.2
		c8.7,0,12.9,0,21.5,0c4.3,0,7.7,3.5,7.7,7.7c0,4.3-3.6,7.9-7.7,7.9H310.5z"/>
	<path class="st2" d="M378.2,155.9c5.5,3.4,7.5,7.7,7.5,13.3v4.5c0,4.3-3.5,7.7-7.6,7.7c-4.4,0-7.7-3.6-7.7-7.7v-4.4l-15.2-18.5
		c0,9.6,0,13.3,0,22.9c0,4.3-3.4,7.7-7.7,7.7c-4.4,0-7.8-3.5-7.8-7.7c0-15.6,0-31.3,0-46.9c0-4.4,3.5-7.8,7.8-7.8
		c5.8,0,11.6,0,17.4,0c3.6,0,6.7,1.3,9.3,3.8l7.6,7.3c2.7,2.7,4.2,5.8,4.2,9.6c0,1.2,0,2.3,0,3.5C386,149.3,383.2,153.4,378.2,155.9
		z M355.2,134.6v15h15.2c0-5,0-10,0-15H355.2z"/>
	<path class="st2" d="M402.7,119h21.5c4.2,0,7.8,3.6,7.8,7.8c0,4.2-3.6,7.7-7.8,7.7h-19.1v31.3h19c4.3,0,7.8,3.4,7.8,7.7
		c0,4.3-3.6,7.7-7.8,7.7h-21.4c-7.3,0-13.2-5.9-13.2-13.2v-36C389.5,125,395.4,119,402.7,119z"/>
	<path class="st2" d="M442.6,118.8c4.5,0,7.8,3.6,7.8,8.2v38.8h14.3v-39.2c0-4.2,3.6-7.8,7.8-7.8c4.4,0,7.9,3.6,7.9,7.8v47.2
		c0,4.4-3.6,7.8-7.9,7.8c-4.3,0-7.8-3.5-7.8-7.8v-2.7c0-0.5-0.4-0.5-0.5,0c-2.1,6.9-7.1,10.3-14,10.3c-8.6,0-15.5-5.7-15.5-14.6
		c0-8.3,0-31.8,0-40.1C434.7,122.5,438,118.8,442.6,118.8z"/>
	<path class="st2" d="M522.4,155.9c5.5,3.4,7.5,7.7,7.5,13.3v4.5c0,4.3-3.5,7.7-7.6,7.7c-4.4,0-7.7-3.6-7.7-7.7v-4.4l-15.2-18.5
		c0,9.6,0,13.3,0,22.9c0,4.3-3.4,7.7-7.7,7.7c-4.4,0-7.8-3.5-7.8-7.7c0-15.6,0-31.3,0-46.9c0-4.4,3.5-7.8,7.8-7.8
		c5.8,0,11.6,0,17.4,0c3.6,0,6.7,1.3,9.3,3.8l7.6,7.3c2.7,2.7,4.2,5.8,4.2,9.6c0,1.2,0,2.3,0,3.5
		C530.2,149.3,527.4,153.4,522.4,155.9z M499.4,134.6v15h15.2c0-5,0-10,0-15H499.4z"/>
	<path class="st2" d="M549.2,134.6c0,2.8,0,5.5,0,8.2c5.8,0,11.5,0,17.4,0c4.2,0,7.7,3.5,7.7,7.8c0,4.2-3.6,7.7-7.7,7.7
		c-5.9,0-11.6,0-17.4,0c0,2.6,0,5.1,0,7.5H568c4.3,0,7.7,3.5,7.7,7.8c0,4.2-3.6,7.6-7.7,7.7c-8.5,0-12.9,0-21.5,0
		c-7.1,0-13-6-13-13.2v-4.8c0-6.1,0.9-11.5,7.7-13.9c-6.4-2.2-7.7-7-7.7-13.2c0-1.3,0-2.8,0-4.2c0-7.3,5.9-13.2,13-13.2
		c8.7,0,12.9,0,21.5,0c4.3,0,7.7,3.5,7.7,7.7c0,4.3-3.6,7.9-7.7,7.9H549.2z"/>
</g>
<g>
	<polygon class="st1" points="214,116.5 134,73.9 154.2,132.6 	"/>
	<polygon class="st0" points="97.6,134.7 145.2,119.5 129.7,74.4 	"/>
	<polygon class="st0" points="165.7,133.9 151.5,137.7 146.6,123.5 101.3,137.9 179.4,179.6 	"/>
	<polygon class="st0" points="130.9,72.2 130.9,72.2 130.9,72.2 	"/>
	<polygon class="st0" points="169.8,132.8 183.4,178.1 213.9,120.9 	"/>
</g>
</svg>
